<?xml version="1.0" encoding="UTF-8" standalone="no"?>
<svg width="272px" height="136px" viewBox="0 0 272 136" version="1.1" xmlns="http://www.w3.org/2000/svg" xmlns:xlink="http://www.w3.org/1999/xlink" xmlns:sketch="http://www.bohemiancoding.com/sketch/ns">
    <title>social@2x</title>
    <description>Created with Sketch (http://www.bohemiancoding.com/sketch)</description>
    <defs></defs>
    <g id="Page-1" stroke="none" stroke-width="1" fill="none" fill-rule="evenodd" sketch:type="MSPage">
        <g id="linkedin-circle-icon-+-github-2-circle-icon" sketch:type="MSLayerGroup" transform="translate(9.000000, 9.000000)" fill="#4ADEC2">
            <path d="M93,0 C79.1928398,0 68,11.1928398 68,25 C68,38.8071602 79.1928398,50 93,50 C106.80716,50 118,38.8071602 118,25 C118,11.1928398 106.80716,0 93,0 L93,0 Z M86,37 L81,37 L81,19 L86,19 L86,37 L86,37 Z M83.0000561,17 C81.3432166,17 80,15.4329637 80,13.5 C80,11.5670363 81.3432166,10 83.0000561,10 C84.6567834,10 86,11.5670363 86,13.5 C86,15.4329637 84.6567834,17 83.0000561,17 L83.0000561,17 Z M107,37 L101.556972,37 L101.556972,27.831154 C101.556972,25.3164543 100.590626,23.9126118 98.5789668,23.9126118 C96.3897836,23.9126118 95.2459133,25.3746688 95.2459133,27.831154 L95.2459133,37 L90,37 L90,19.5328959 L95.2459133,19.5328959 L95.2459133,21.8852644 C95.2459133,21.8852644 96.823678,19 100.570673,19 C104.317788,19 106.999879,21.2614008 106.999879,25.9400788 C107,30.6187567 107,37 107,37 L107,37 Z" id="linkedin-circle-icon" sketch:type="MSShapeGroup"></path>
            <path d="M14.4220874,32.1497573 C14.4220874,32.2324029 14.3275485,32.2991505 14.2110437,32.2991505 C14.0944175,32.2991505 14,32.2322816 14,32.1497573 C14,32.0668689 14.0944175,32 14.2110437,32 C14.3275485,32 14.4220874,32.0668689 14.4220874,32.1497573 L14.4220874,32.1497573 Z M14.2468447,32 C14.1105583,32 14,32.0785194 14,32.175 C14,32.2717233 14.1105583,32.3501214 14.2468447,32.3501214 C14.3830097,32.3501214 14.4934466,32.2717233 14.4934466,32.175 C14.493568,32.0786408 14.3830097,32 14.2468447,32 L14.2468447,32 Z M15.5000995,33 C15.2239697,33 15,33.096966 15,33.2162621 C15,33.3356796 15.2239697,33.4322816 15.5000995,33.4322816 C15.7760303,33.4322816 16,33.3356796 16,33.2162621 C16,33.096966 15.7760303,33 15.5000995,33 L15.5000995,33 Z M13.1620146,31 C13.0725728,31 13,31.0514563 13,31.1149272 C13,31.1781553 13.0725728,31.2296117 13.1620146,31.2296117 C13.2514563,31.2296117 13.3240291,31.1781553 13.3240291,31.1149272 C13.3240291,31.0514563 13.2514563,31 13.1620146,31 L13.1620146,31 Z M13.1800971,31 C13.0807039,31 13,31.0572816 13,31.1277913 C13,31.1981796 13.0807039,31.2553398 13.1800971,31.2553398 C13.2792476,31.2553398 13.3599515,31.1981796 13.3599515,31.1277913 C13.3599515,31.0572816 13.2792476,31 13.1800971,31 L13.1800971,31 Z M15.4998894,33 C15.2238443,33 15,33.0872573 15,33.1946602 C15,33.3023058 15.2238443,33.3893204 15.4998894,33.3893204 C15.7759345,33.3893204 16,33.3023058 16,33.1946602 C16,33.0872573 15.7759345,33 15.4998894,33 L15.4998894,33 Z M50,25 C50,38.8071602 38.8071602,50 25,50 C11.1928398,50 0,38.8071602 0,25 C0,11.1928398 11.1928398,0 25,0 C38.8071602,0 50,11.1928398 50,25 L50,25 Z M36.7598511,26.9820441 C36.8331519,26.8142986 36.9057244,26.6456903 36.9684669,26.4685776 C38.9248924,26.3092132 40.9404196,26.3248662 42.9678399,26.5249036 L43,26.1859615 C40.9995213,25.9887589 39.0096008,25.9712571 37.076719,26.1211312 C37.3873976,25.114165 37.5511106,23.9767986 37.5393388,22.6832723 C37.5138534,19.9354996 36.611672,17.7953576 35.1939584,16.019301 C35.4661662,14.3464061 35.2610698,12.6735112 34.7472366,11 C32.7212725,11.168485 30.8978563,11.8423019 29.2743181,13.0130695 C26.240105,12.3879371 23.206256,12.3481268 20.1719216,13.0130695 C18.2782387,11.7149829 16.4185362,11.0783881 14.5875958,11 C14.0448792,12.8427357 13.9612629,14.6590956 14.4201206,16.444889 C12.8227959,18.1662219 12.2123611,20.2558307 12.2423367,22.5696343 C12.2594483,23.89422 12.4602971,25.0728757 12.8311697,26.1149686 C10.9265644,25.9731059 8.9689254,25.9920867 7,26.1858383 L7.03228144,26.5247804 C9.03725041,26.3270847 11.0306903,26.3108155 12.9669702,26.4646336 C13.0380864,26.6396509 13.1095668,26.8141753 13.1912413,26.9808116 C11.0933114,26.9246088 9.20521101,27.1097328 7.43701309,27.5513435 L7.51674583,27.881658 C9.31139998,27.4337615 11.2339663,27.253321 13.3804397,27.326779 C14.7999737,29.888072 17.5327315,31.3930981 21.5122084,31.8706983 C20.5876969,32.6333797 20.0906112,33.5328704 19.9625777,34.5508059 L17.8549391,34.5508059 C15.0243662,34.5508059 14.2526455,30.8854245 11.3208592,31.2469216 C14.1651457,32.6794758 13.5970651,37.2582753 18.1483847,37.2582753 L20.0605142,37.2582753 L20.0605142,41.4554877 C20.0807811,42.1337417 19.7900054,42.5873078 19.3204682,42.9015996 C20.9504384,43.0686056 22.1753129,42.2422031 22.1753129,41.2285814 L22.1753129,35.6805307 C22.1753129,35.1862915 22.6848986,35.1480835 22.6848986,35.1480835 L22.6848986,41.625575 C22.7065005,42.2701813 22.3980063,42.6366085 22.0705803,42.9867665 C23.5066191,43.0449413 24.8573427,42.7535743 24.9185076,41.51243 L24.9185076,35.3129942 C24.9185076,35.001414 25.4215398,34.9936492 25.4215398,35.3129942 L25.4215398,41.2214328 C25.4363456,42.268579 26.3268766,43.1175365 28.2135207,42.9866432 C27.7087894,42.5739966 27.5538142,42.1570362 27.5538142,41.5534728 L27.5538142,35.1479602 C27.5538142,35.1479602 28.0738367,35.1209681 28.0738367,35.6804075 L28.0738367,41.0830212 C28.0738367,42.2854645 29.4950698,42.7815524 31.1171517,42.7348401 C30.5857215,42.3305746 30.2260139,41.848414 30.2238295,41.2035613 L30.2238295,34.7063495 C30.1689753,33.7513956 29.7865737,32.8510421 29.0370616,32.0123145 C32.6747921,31.4449871 35.2966279,29.9704041 36.602206,27.3271488 C38.7557182,27.2520885 40.6841097,27.4320359 42.4833755,27.8812883 L42.5632296,27.5509738 C40.7811968,27.106405 38.8775624,26.9215275 36.7598511,26.9820441 L36.7598511,26.9820441 Z M20.5,34 C20.2240143,34 20,34.1078883 20,34.2404126 C20,34.3729369 20.2240143,34.4805825 20.5,34.4805825 C20.7761649,34.4805825 21,34.3729369 21,34.2404126 C21,34.1078883 20.7761649,34 20.5,34 L20.5,34 Z M18.4999104,34 C18.223696,34 18,34.107767 18,34.2404126 C18,34.3729369 18.223696,34.4805825 18.4999104,34.4805825 C18.7759455,34.4805825 19,34.3729369 19,34.2404126 C19,34.107767 18.7759455,34 18.4999104,34 L18.4999104,34 Z M17.5,34 C17.2240143,34 17,34.107767 17,34.2404126 C17,34.3729369 17.2240143,34.4805825 17.5,34.4805825 C17.7763441,34.4805825 18,34.3729369 18,34.2404126 C18,34.107767 17.7763441,34 17.5,34 L17.5,34 Z M16.5001792,34 C16.2238351,34 16,34.107767 16,34.2402913 C16,34.3730583 16.2238351,34.4805825 16.5001792,34.4805825 C16.7761649,34.4805825 17,34.3729369 17,34.2402913 C17,34.107767 16.7761649,34 16.5001792,34 L16.5001792,34 Z" id="github-2-circle-icon" sketch:type="MSShapeGroup"></path>
            <path d="M137,25 C137,38.8071602 148.19284,50 162,50 C175.80716,50 187,38.8071602 187,25 C187,11.1928398 175.80716,0 162,0 C148.19284,0 137,11.1928398 137,25 Z M174.133523,20.7283381 C174.496747,28.8947168 168.471026,38 157.80563,38 C154.561622,38 151.541968,37.0386133 149,35.3913379 C152.047548,35.754334 155.089325,34.8998896 157.504567,32.9868383 C154.990854,32.9399295 152.869101,31.2614221 152.138324,28.9545073 C153.038389,29.1285315 153.923905,29.0776124 154.732353,28.8553426 C151.969877,28.2942603 150.06262,25.7786866 150.124901,23.0886025 C150.899202,23.5236631 151.78532,23.784821 152.726985,23.8149592 C150.168666,22.0867479 149.444261,18.6722515 150.949339,16.0629818 C153.782391,19.5757922 158.015437,21.8874464 162.789652,22.1295248 C161.951748,18.4976197 164.677552,15 168.38554,15 C170.037783,15 171.530838,15.7050898 172.578549,16.8335737 C173.887166,16.573145 175.116429,16.0899604 176.226541,15.4246094 C175.797669,16.7804672 174.886663,17.9184301 173.700684,18.6368877 C174.862737,18.496769 175.969963,18.1845705 177,17.7226528 C176.229907,18.8871083 175.256019,19.9098652 174.133523,20.7283381 L174.133523,20.7283381 Z" id="twitter-4-icon" sketch:type="MSShapeGroup"></path>
            <path d="M232,0 C218.19284,0 207,11.1928398 207,25 C207,38.8071602 218.19284,50 232,50 C245.80716,50 257,38.8071602 257,25 C257,11.1928398 245.80716,0 232,0 L232,0 Z M247.043204,13.888835 L232.121966,25.3326456 L217.224515,13.888835 L247.043204,13.888835 L247.043204,13.888835 Z M217.121238,17.023301 L225.898786,23.7658981 L217.121238,32.5434466 L217.121238,17.023301 L217.121238,17.023301 Z M217.157767,36.1110437 L227.937015,25.3317961 L232.120752,28.5453883 L236.297694,25.3419903 L247.066869,36.1109223 L217.157767,36.1109223 L217.157767,36.1110437 Z M247.121359,32.5615291 L238.337379,23.7775485 L247.121359,17.0407767 L247.121359,32.5615291 L247.121359,32.5615291 Z" id="email-9-icon" sketch:type="MSShapeGroup"></path>
        </g>
        <g id="linkedin-circle-icon-+-github-2-circle-icon-copy" sketch:type="MSLayerGroup" transform="translate(9.000000, 77.000000)" fill="#FFFFFF">
            <path d="M93,0 C79.1928398,0 68,11.1928398 68,25 C68,38.8071602 79.1928398,50 93,50 C106.80716,50 118,38.8071602 118,25 C118,11.1928398 106.80716,0 93,0 L93,0 Z M86,37 L81,37 L81,19 L86,19 L86,37 L86,37 Z M83.0000561,17 C81.3432166,17 80,15.4329637 80,13.5 C80,11.5670363 81.3432166,10 83.0000561,10 C84.6567834,10 86,11.5670363 86,13.5 C86,15.4329637 84.6567834,17 83.0000561,17 L83.0000561,17 Z M107,37 L101.556972,37 L101.556972,27.831154 C101.556972,25.3164543 100.590626,23.9126118 98.5789668,23.9126118 C96.3897836,23.9126118 95.2459133,25.3746688 95.2459133,27.831154 L95.2459133,37 L90,37 L90,19.5328959 L95.2459133,19.5328959 L95.2459133,21.8852644 C95.2459133,21.8852644 96.823678,19 100.570673,19 C104.317788,19 106.999879,21.2614008 106.999879,25.9400788 C107,30.6187567 107,37 107,37 L107,37 Z" id="linkedin-circle-icon" sketch:type="MSShapeGroup"></path>
            <path d="M14.4220874,32.1497573 C14.4220874,32.2324029 14.3275485,32.2991505 14.2110437,32.2991505 C14.0944175,32.2991505 14,32.2322816 14,32.1497573 C14,32.0668689 14.0944175,32 14.2110437,32 C14.3275485,32 14.4220874,32.0668689 14.4220874,32.1497573 L14.4220874,32.1497573 Z M14.2468447,32 C14.1105583,32 14,32.0785194 14,32.175 C14,32.2717233 14.1105583,32.3501214 14.2468447,32.3501214 C14.3830097,32.3501214 14.4934466,32.2717233 14.4934466,32.175 C14.493568,32.0786408 14.3830097,32 14.2468447,32 L14.2468447,32 Z M15.5000995,33 C15.2239697,33 15,33.096966 15,33.2162621 C15,33.3356796 15.2239697,33.4322816 15.5000995,33.4322816 C15.7760303,33.4322816 16,33.3356796 16,33.2162621 C16,33.096966 15.7760303,33 15.5000995,33 L15.5000995,33 Z M13.1620146,31 C13.0725728,31 13,31.0514563 13,31.1149272 C13,31.1781553 13.0725728,31.2296117 13.1620146,31.2296117 C13.2514563,31.2296117 13.3240291,31.1781553 13.3240291,31.1149272 C13.3240291,31.0514563 13.2514563,31 13.1620146,31 L13.1620146,31 Z M13.1800971,31 C13.0807039,31 13,31.0572816 13,31.1277913 C13,31.1981796 13.0807039,31.2553398 13.1800971,31.2553398 C13.2792476,31.2553398 13.3599515,31.1981796 13.3599515,31.1277913 C13.3599515,31.0572816 13.2792476,31 13.1800971,31 L13.1800971,31 Z M15.4998894,33 C15.2238443,33 15,33.0872573 15,33.1946602 C15,33.3023058 15.2238443,33.3893204 15.4998894,33.3893204 C15.7759345,33.3893204 16,33.3023058 16,33.1946602 C16,33.0872573 15.7759345,33 15.4998894,33 L15.4998894,33 Z M50,25 C50,38.8071602 38.8071602,50 25,50 C11.1928398,50 0,38.8071602 0,25 C0,11.1928398 11.1928398,0 25,0 C38.8071602,0 50,11.1928398 50,25 L50,25 Z M36.7598511,26.9820441 C36.8331519,26.8142986 36.9057244,26.6456903 36.9684669,26.4685776 C38.9248924,26.3092132 40.9404196,26.3248662 42.9678399,26.5249036 L43,26.1859615 C40.9995213,25.9887589 39.0096008,25.9712571 37.076719,26.1211312 C37.3873976,25.114165 37.5511106,23.9767986 37.5393388,22.6832723 C37.5138534,19.9354996 36.611672,17.7953576 35.1939584,16.019301 C35.4661662,14.3464061 35.2610698,12.6735112 34.7472366,11 C32.7212725,11.168485 30.8978563,11.8423019 29.2743181,13.0130695 C26.240105,12.3879371 23.206256,12.3481268 20.1719216,13.0130695 C18.2782387,11.7149829 16.4185362,11.0783881 14.5875958,11 C14.0448792,12.8427357 13.9612629,14.6590956 14.4201206,16.444889 C12.8227959,18.1662219 12.2123611,20.2558307 12.2423367,22.5696343 C12.2594483,23.89422 12.4602971,25.0728757 12.8311697,26.1149686 C10.9265644,25.9731059 8.9689254,25.9920867 7,26.1858383 L7.03228144,26.5247804 C9.03725041,26.3270847 11.0306903,26.3108155 12.9669702,26.4646336 C13.0380864,26.6396509 13.1095668,26.8141753 13.1912413,26.9808116 C11.0933114,26.9246088 9.20521101,27.1097328 7.43701309,27.5513435 L7.51674583,27.881658 C9.31139998,27.4337615 11.2339663,27.253321 13.3804397,27.326779 C14.7999737,29.888072 17.5327315,31.3930981 21.5122084,31.8706983 C20.5876969,32.6333797 20.0906112,33.5328704 19.9625777,34.5508059 L17.8549391,34.5508059 C15.0243662,34.5508059 14.2526455,30.8854245 11.3208592,31.2469216 C14.1651457,32.6794758 13.5970651,37.2582753 18.1483847,37.2582753 L20.0605142,37.2582753 L20.0605142,41.4554877 C20.0807811,42.1337417 19.7900054,42.5873078 19.3204682,42.9015996 C20.9504384,43.0686056 22.1753129,42.2422031 22.1753129,41.2285814 L22.1753129,35.6805307 C22.1753129,35.1862915 22.6848986,35.1480835 22.6848986,35.1480835 L22.6848986,41.625575 C22.7065005,42.2701813 22.3980063,42.6366085 22.0705803,42.9867665 C23.5066191,43.0449413 24.8573427,42.7535743 24.9185076,41.51243 L24.9185076,35.3129942 C24.9185076,35.001414 25.4215398,34.9936492 25.4215398,35.3129942 L25.4215398,41.2214328 C25.4363456,42.268579 26.3268766,43.1175365 28.2135207,42.9866432 C27.7087894,42.5739966 27.5538142,42.1570362 27.5538142,41.5534728 L27.5538142,35.1479602 C27.5538142,35.1479602 28.0738367,35.1209681 28.0738367,35.6804075 L28.0738367,41.0830212 C28.0738367,42.2854645 29.4950698,42.7815524 31.1171517,42.7348401 C30.5857215,42.3305746 30.2260139,41.848414 30.2238295,41.2035613 L30.2238295,34.7063495 C30.1689753,33.7513956 29.7865737,32.8510421 29.0370616,32.0123145 C32.6747921,31.4449871 35.2966279,29.9704041 36.602206,27.3271488 C38.7557182,27.2520885 40.6841097,27.4320359 42.4833755,27.8812883 L42.5632296,27.5509738 C40.7811968,27.106405 38.8775624,26.9215275 36.7598511,26.9820441 L36.7598511,26.9820441 Z M20.5,34 C20.2240143,34 20,34.1078883 20,34.2404126 C20,34.3729369 20.2240143,34.4805825 20.5,34.4805825 C20.7761649,34.4805825 21,34.3729369 21,34.2404126 C21,34.1078883 20.7761649,34 20.5,34 L20.5,34 Z M18.4999104,34 C18.223696,34 18,34.107767 18,34.2404126 C18,34.3729369 18.223696,34.4805825 18.4999104,34.4805825 C18.7759455,34.4805825 19,34.3729369 19,34.2404126 C19,34.107767 18.7759455,34 18.4999104,34 L18.4999104,34 Z M17.5,34 C17.2240143,34 17,34.107767 17,34.2404126 C17,34.3729369 17.2240143,34.4805825 17.5,34.4805825 C17.7763441,34.4805825 18,34.3729369 18,34.2404126 C18,34.107767 17.7763441,34 17.5,34 L17.5,34 Z M16.5001792,34 C16.2238351,34 16,34.107767 16,34.2402913 C16,34.3730583 16.2238351,34.4805825 16.5001792,34.4805825 C16.7761649,34.4805825 17,34.3729369 17,34.2402913 C17,34.107767 16.7761649,34 16.5001792,34 L16.5001792,34 Z" id="github-2-circle-icon" sketch:type="MSShapeGroup"></path>
            <path d="M137,25 C137,38.8071602 148.19284,50 162,50 C175.80716,50 187,38.8071602 187,25 C187,11.1928398 175.80716,0 162,0 C148.19284,0 137,11.1928398 137,25 Z M174.133523,20.7283381 C174.496747,28.8947168 168.471026,38 157.80563,38 C154.561622,38 151.541968,37.0386133 149,35.3913379 C152.047548,35.754334 155.089325,34.8998896 157.504567,32.9868383 C154.990854,32.9399295 152.869101,31.2614221 152.138324,28.9545073 C153.038389,29.1285315 153.923905,29.0776124 154.732353,28.8553426 C151.969877,28.2942603 150.06262,25.7786866 150.124901,23.0886025 C150.899202,23.5236631 151.78532,23.784821 152.726985,23.8149592 C150.168666,22.0867479 149.444261,18.6722515 150.949339,16.0629818 C153.782391,19.5757922 158.015437,21.8874464 162.789652,22.1295248 C161.951748,18.4976197 164.677552,15 168.38554,15 C170.037783,15 171.530838,15.7050898 172.578549,16.8335737 C173.887166,16.573145 175.116429,16.0899604 176.226541,15.4246094 C175.797669,16.7804672 174.886663,17.9184301 173.700684,18.6368877 C174.862737,18.496769 175.969963,18.1845705 177,17.7226528 C176.229907,18.8871083 175.256019,19.9098652 174.133523,20.7283381 L174.133523,20.7283381 Z" id="twitter-4-icon" sketch:type="MSShapeGroup"></path>
            <path d="M232,0 C218.19284,0 207,11.1928398 207,25 C207,38.8071602 218.19284,50 232,50 C245.80716,50 257,38.8071602 257,25 C257,11.1928398 245.80716,0 232,0 L232,0 Z M247.043204,13.888835 L232.121966,25.3326456 L217.224515,13.888835 L247.043204,13.888835 L247.043204,13.888835 Z M217.121238,17.023301 L225.898786,23.7658981 L217.121238,32.5434466 L217.121238,17.023301 L217.121238,17.023301 Z M217.157767,36.1110437 L227.937015,25.3317961 L232.120752,28.5453883 L236.297694,25.3419903 L247.066869,36.1109223 L217.157767,36.1109223 L217.157767,36.1110437 Z M247.121359,32.5615291 L238.337379,23.7775485 L247.121359,17.0407767 L247.121359,32.5615291 L247.121359,32.5615291 Z" id="email-9-icon" sketch:type="MSShapeGroup"></path>
        </g>
    </g>
</svg>